<svg width="25" height="24" viewBox="0 0 25 24" fill="none" xmlns="http://www.w3.org/2000/svg">
<path d="M3.66943 7.43982L12.4994 12.5498L21.2694 7.46982M12.4994 21.6098V12.5398" stroke="#1A0220" stroke-width="1.5" stroke-linecap="round" stroke-linejoin="round"/>
<path d="M10.4296 2.48L5.08965 5.45C3.87965 6.12 2.88965 7.8 2.88965 9.18V14.83C2.88965 16.21 3.87965 17.89 5.08965 18.56L10.4296 21.53C11.5696 22.16 13.4396 22.16 14.5796 21.53L19.9196 18.56C21.1296 17.89 22.1196 16.21 22.1196 14.83V9.18C22.1196 7.8 21.1296 6.12 19.9196 5.45L14.5796 2.48C13.4296 1.84 11.5696 1.84 10.4296 2.48V2.48Z" stroke="#1A0220" stroke-width="1.5" stroke-linecap="round" stroke-linejoin="round"/>
<path d="M17.4983 13.24V9.57997L8.0083 4.09998" stroke="#1A0220" stroke-width="1.5" stroke-linecap="round" stroke-linejoin="round"/>
</svg>
