<svg width="25" height="24" viewBox="0 0 25 24" fill="none" xmlns="http://www.w3.org/2000/svg">
<path d="M4.40134 15.3001L8.93134 19.8301C9.82735 20.7235 11.041 21.2251 12.3063 21.2251C13.5716 21.2251 14.7853 20.7235 15.6813 19.8301L20.0713 15.4401C20.9647 14.5441 21.4664 13.3304 21.4664 12.0651C21.4664 10.7998 20.9647 9.58608 20.0713 8.69007L15.5313 4.17007C15.0619 3.69937 14.499 3.33244 13.8789 3.093C13.2587 2.85357 12.5953 2.74696 11.9313 2.78007L6.93134 3.02007C4.93134 3.11007 3.34134 4.70007 3.24134 6.69007L3.00134 11.6901C2.94134 13.0401 3.45134 14.3501 4.40134 15.3001Z" stroke="url(#paint0_linear_361_3046)" stroke-width="1.5" stroke-linecap="round" stroke-linejoin="round"/>
<path d="M9.73096 12.0002C10.394 12.0002 11.0299 11.7369 11.4987 11.268C11.9676 10.7992 12.231 10.1633 12.231 9.50024C12.231 8.8372 11.9676 8.20132 11.4987 7.73248C11.0299 7.26364 10.394 7.00024 9.73096 7.00024C9.06792 7.00024 8.43203 7.26364 7.96319 7.73248C7.49435 8.20132 7.23096 8.8372 7.23096 9.50024C7.23096 10.1633 7.49435 10.7992 7.96319 11.268C8.43203 11.7369 9.06792 12.0002 9.73096 12.0002Z" stroke="url(#paint1_linear_361_3046)" stroke-width="1.5" stroke-linecap="round"/>
<defs>
<linearGradient id="paint0_linear_361_3046" x1="12.2315" y1="2.77417" x2="12.2315" y2="21.2251" gradientUnits="userSpaceOnUse">
<stop stop-color="#6A3FA2"/>
<stop offset="1" stop-color="#69119E"/>
</linearGradient>
<linearGradient id="paint1_linear_361_3046" x1="9.73096" y1="7.00024" x2="9.73096" y2="12.0002" gradientUnits="userSpaceOnUse">
<stop stop-color="#6A3FA2"/>
<stop offset="1" stop-color="#69119E"/>
</linearGradient>
</defs>
</svg>
