<svg width="25" height="24" viewBox="0 0 25 24" fill="none" xmlns="http://www.w3.org/2000/svg">
<path d="M12.5007 14.0001H13.5007C14.6007 14.0001 15.5007 13.1001 15.5007 12.0001V2.00012H6.50074C5.00074 2.00012 3.69074 2.83012 3.01074 4.05012" stroke="#1A0220" stroke-width="1.5" stroke-linecap="round" stroke-linejoin="round"/>
<path d="M2.50098 16.9999C2.50098 18.6599 3.84098 19.9999 5.50098 19.9999H6.50098C6.50098 18.8999 7.40098 17.9999 8.50098 17.9999C9.60098 17.9999 10.501 18.8999 10.501 19.9999H14.501C14.501 18.8999 15.401 17.9999 16.501 17.9999C17.601 17.9999 18.501 18.8999 18.501 19.9999H19.501C21.161 19.9999 22.501 18.6599 22.501 16.9999V13.9999H19.501C18.951 13.9999 18.501 13.5499 18.501 12.9999V9.99988C18.501 9.44988 18.951 8.99988 19.501 8.99988H20.791L19.081 6.00988C18.9048 5.7039 18.6513 5.44956 18.346 5.27231C18.0406 5.09506 17.6941 5.00112 17.341 4.99988H15.501V11.9999C15.501 13.0999 14.601 13.9999 13.501 13.9999H12.501" stroke="#1A0220" stroke-width="1.5" stroke-linecap="round" stroke-linejoin="round"/>
<path d="M2.50098 8H8.50098M2.50098 11H6.50098M2.50098 14H4.50098M8.50098 22C9.03141 22 9.54012 21.7893 9.91519 21.4142C10.2903 21.0391 10.501 20.5304 10.501 20C10.501 19.4696 10.2903 18.9609 9.91519 18.5858C9.54012 18.2107 9.03141 18 8.50098 18C7.97054 18 7.46184 18.2107 7.08676 18.5858C6.71169 18.9609 6.50098 19.4696 6.50098 20C6.50098 20.5304 6.71169 21.0391 7.08676 21.4142C7.46184 21.7893 7.97054 22 8.50098 22V22ZM16.501 22C17.0314 22 17.5401 21.7893 17.9152 21.4142C18.2903 21.0391 18.501 20.5304 18.501 20C18.501 19.4696 18.2903 18.9609 17.9152 18.5858C17.5401 18.2107 17.0314 18 16.501 18C15.9705 18 15.4618 18.2107 15.0868 18.5858C14.7117 18.9609 14.501 19.4696 14.501 20C14.501 20.5304 14.7117 21.0391 15.0868 21.4142C15.4618 21.7893 15.9705 22 16.501 22ZM22.501 12V14H19.501C18.951 14 18.501 13.55 18.501 13V10C18.501 9.45 18.951 9 19.501 9H20.791L22.501 12Z" stroke="#1A0220" stroke-width="1.5" stroke-linecap="round" stroke-linejoin="round"/>
</svg>
