<svg width="25" height="24" viewBox="0 0 25 24" fill="none" xmlns="http://www.w3.org/2000/svg">
<path d="M15.4976 2V12C15.4976 13.1 14.5976 14 13.4976 14H2.49756V6C2.49756 3.79 4.28756 2 6.49756 2H15.4976Z" stroke="#1A0220" stroke-width="1.5" stroke-linecap="round" stroke-linejoin="round"/>
<path d="M22.4976 13.9998V16.9998C22.4976 18.6598 21.1576 19.9998 19.4976 19.9998H18.4976C18.4976 18.8998 17.5976 17.9998 16.4976 17.9998C15.3976 17.9998 14.4976 18.8998 14.4976 19.9998H10.4976C10.4976 18.8998 9.59756 17.9998 8.49756 17.9998C7.39756 17.9998 6.49756 18.8998 6.49756 19.9998H5.49756C3.83756 19.9998 2.49756 18.6598 2.49756 16.9998V13.9998H13.4976C14.5976 13.9998 15.4976 13.0998 15.4976 11.9998V4.99976H17.3376C18.0576 4.99976 18.7176 5.38976 19.0776 6.00976L20.7876 8.99976H19.4976C18.9476 8.99976 18.4976 9.44976 18.4976 9.99976V12.9998C18.4976 13.5498 18.9476 13.9998 19.4976 13.9998H22.4976Z" stroke="#1A0220" stroke-width="1.5" stroke-linecap="round" stroke-linejoin="round"/>
<path d="M8.49707 21.9999C9.0275 21.9999 9.53621 21.7892 9.91128 21.4141C10.2864 21.039 10.4971 20.5303 10.4971 19.9999C10.4971 19.4694 10.2864 18.9607 9.91128 18.5857C9.53621 18.2106 9.0275 17.9999 8.49707 17.9999C7.96664 17.9999 7.45793 18.2106 7.08286 18.5857C6.70778 18.9607 6.49707 19.4694 6.49707 19.9999C6.49707 20.5303 6.70778 21.039 7.08286 21.4141C7.45793 21.7892 7.96664 21.9999 8.49707 21.9999V21.9999ZM16.4971 21.9999C17.0275 21.9999 17.5362 21.7892 17.9113 21.4141C18.2864 21.039 18.4971 20.5303 18.4971 19.9999C18.4971 19.4694 18.2864 18.9607 17.9113 18.5857C17.5362 18.2106 17.0275 17.9999 16.4971 17.9999C15.9666 17.9999 15.4579 18.2106 15.0829 18.5857C14.7078 18.9607 14.4971 19.4694 14.4971 19.9999C14.4971 20.5303 14.7078 21.039 15.0829 21.4141C15.4579 21.7892 15.9666 21.9999 16.4971 21.9999ZM22.4971 11.9999V13.9999H19.4971C18.9471 13.9999 18.4971 13.5499 18.4971 12.9999V9.99988C18.4971 9.44988 18.9471 8.99988 19.4971 8.99988H20.7871L22.4971 11.9999Z" stroke="#1A0220" stroke-width="1.5" stroke-linecap="round" stroke-linejoin="round"/>
</svg>
