<svg width="23" height="22" viewBox="0 0 23 22" fill="none" xmlns="http://www.w3.org/2000/svg">
<path d="M21.5 7.51988V2.97988C21.5 1.56988 20.86 0.999878 19.27 0.999878H15.23C13.64 0.999878 13 1.56988 13 2.97988V7.50988C13 8.92988 13.64 9.48988 15.23 9.48988H19.27C20.86 9.49988 21.5 8.92988 21.5 7.51988ZM21.5 18.7699V14.7299C21.5 13.1399 20.86 12.4999 19.27 12.4999H15.23C13.64 12.4999 13 13.1399 13 14.7299V18.7699C13 20.3599 13.64 20.9999 15.23 20.9999H19.27C20.86 20.9999 21.5 20.3599 21.5 18.7699ZM10 7.51988V2.97988C10 1.56988 9.36 0.999878 7.77 0.999878H3.73C2.14 0.999878 1.5 1.56988 1.5 2.97988V7.50988C1.5 8.92988 2.14 9.48988 3.73 9.48988H7.77C9.36 9.49988 10 8.92988 10 7.51988ZM10 18.7699V14.7299C10 13.1399 9.36 12.4999 7.77 12.4999H3.73C2.14 12.4999 1.5 13.1399 1.5 14.7299V18.7699C1.5 20.3599 2.14 20.9999 3.73 20.9999H7.77C9.36 20.9999 10 20.3599 10 18.7699Z" stroke="url(#paint0_linear_361_2593)" stroke-width="1.5" stroke-linecap="round" stroke-linejoin="round"/>
<defs>
<linearGradient id="paint0_linear_361_2593" x1="11.5" y1="0.999878" x2="11.5" y2="20.9999" gradientUnits="userSpaceOnUse">
<stop stop-color="#6A3FA2"/>
<stop offset="1" stop-color="#69119E"/>
</linearGradient>
</defs>
</svg>
